<svg xmlns="http://www.w3.org/2000/svg" viewBox="0 0 256 256" width="256" height="256" role="img" aria-label="PreviewsMCP">
  <defs>
    <linearGradient id="bg" x1="0" y1="0" x2="1" y2="1">
      <stop offset="0" stop-color="#2D2E35"/>
      <stop offset="1" stop-color="#1A1B1F"/>
    </linearGradient>
  </defs>

  <rect width="256" height="256" rx="56" fill="url(#bg)"/>

  <!-- Code editor window -->
  <rect x="16" y="52" width="156" height="152" rx="14" fill="#32333A"/>
  <circle cx="32" cy="70" r="4" fill="#FF5F57"/>
  <circle cx="46" cy="70" r="4" fill="#FEBC2E"/>
  <circle cx="60" cy="70" r="4" fill="#28C840"/>
  <line x1="16" y1="88" x2="172" y2="88" stroke="#3F4048" stroke-width="1.5"/>
  <rect x="26" y="100" width="46" height="6" rx="3" fill="#FF7AB2"/>
  <rect x="26" y="114" width="78" height="6" rx="3" fill="#7F8C98"/>
  <rect x="40" y="128" width="58" height="6" rx="3" fill="#FC6A5D"/>
  <rect x="40" y="142" width="70" height="6" rx="3" fill="#D0A8FF"/>
  <rect x="26" y="156" width="40" height="6" rx="3" fill="#5DD8FF"/>
  <rect x="40" y="170" width="62" height="6" rx="3" fill="#D9C97C"/>
  <rect x="26" y="184" width="54" height="6" rx="3" fill="#67B7A4"/>

  <!-- iPhone preview -->
  <rect x="150" y="38" width="90" height="180" rx="18" fill="#26272D"
        stroke="#5DD8FF" stroke-width="2.5"/>
  <rect x="180" y="46" width="30" height="6" rx="3" fill="#0D0D0F"/>
  <rect x="158" y="62" width="74" height="42" rx="6" fill="#32333A"/>
  <circle cx="173" cy="83" r="8" fill="#FF7AB2"/>
  <rect x="188" y="76" width="36" height="4" rx="2" fill="#DFDFE0"/>
  <rect x="188" y="84" width="28" height="3" rx="1.5" fill="#7F8C98"/>
  <rect x="188" y="92" width="32" height="3" rx="1.5" fill="#7F8C98"/>
  <rect x="158" y="116" width="74" height="4" rx="2" fill="#3F4048"/>
  <rect x="158" y="126" width="60" height="4" rx="2" fill="#3F4048"/>
  <rect x="158" y="136" width="68" height="4" rx="2" fill="#3F4048"/>
  <rect x="158" y="146" width="52" height="4" rx="2" fill="#3F4048"/>
  <rect x="158" y="156" width="64" height="4" rx="2" fill="#3F4048"/>
  <rect x="158" y="166" width="46" height="4" rx="2" fill="#3F4048"/>
  <rect x="158" y="176" width="58" height="4" rx="2" fill="#3F4048"/>
  <rect x="158" y="186" width="40" height="4" rx="2" fill="#3F4048"/>
  <rect x="158" y="196" width="52" height="4" rx="2" fill="#3F4048"/>

  <!-- Sync arrows -->
  <g transform="translate(146 128)">
    <circle r="16" fill="#1A1B1F" stroke="#5DD8FF" stroke-width="2.5"/>
    <path d="M -9 -2 A 9 9 0 0 1 7 -6" fill="none" stroke="#5DD8FF" stroke-width="2.6" stroke-linecap="round"/>
    <path d="M -5 -4 L 0 0 L -5 4" fill="none" stroke="#5DD8FF" stroke-width="2.6" stroke-linecap="round" stroke-linejoin="round" transform="translate(7 -6) rotate(30)"/>
    <path d="M 9 2 A 9 9 0 0 1 -7 6" fill="none" stroke="#5DD8FF" stroke-width="2.6" stroke-linecap="round"/>
    <path d="M -5 -4 L 0 0 L -5 4" fill="none" stroke="#5DD8FF" stroke-width="2.6" stroke-linecap="round" stroke-linejoin="round" transform="translate(-7 6) rotate(-150)"/>
  </g>
</svg>
