<svg xmlns="http://www.w3.org/2000/svg" viewBox="0 0 256 256" width="256" height="256" role="img" aria-label="PreviewsMCP">
  <defs>
    <linearGradient id="bg" x1="0" y1="0" x2="1" y2="1">
      <stop offset="0" stop-color="#2D2E35"/>
      <stop offset="1" stop-color="#1A1B1F"/>
    </linearGradient>
  </defs>
  <rect width="256" height="256" rx="56" fill="url(#bg)"/>
  <rect x="36" y="48" width="184" height="160" rx="16" fill="#26272D" stroke="#3F4048" stroke-width="1.5"/>
  <circle cx="52" cy="64" r="4" fill="#FF5F57"/>
  <circle cx="66" cy="64" r="4" fill="#FEBC2E"/>
  <circle cx="80" cy="64" r="4" fill="#28C840"/>
  <line x1="36" y1="80" x2="220" y2="80" stroke="#3F4048" stroke-width="1.5"/>
  <rect x="48" y="94" width="44" height="6" rx="3" fill="#FF7AB2"/>
  <rect x="48" y="108" width="62" height="6" rx="3" fill="#D0A8FF"/>
  <rect x="58" y="122" width="40" height="6" rx="3" fill="#FC6A5D"/>
  <rect x="58" y="136" width="54" height="6" rx="3" fill="#5DD8FF"/>
  <rect x="58" y="150" width="34" height="6" rx="3" fill="#D9C97C"/>
  <rect x="48" y="164" width="48" height="6" rx="3" fill="#67B7A4"/>
  <rect x="48" y="178" width="40" height="6" rx="3" fill="#7F8C98"/>
  <line x1="128" y1="80" x2="128" y2="208" stroke="#3F4048" stroke-width="1.5"/>
  <rect x="142" y="94" width="64" height="90" rx="8" fill="#32333A"/>
  <circle cx="158" cy="112" r="9" fill="#FF7AB2"/>
  <rect x="172" y="106" width="26" height="5" rx="2.5" fill="#DFDFE0"/>
  <rect x="172" y="116" width="20" height="4" rx="2" fill="#7F8C98"/>
  <rect x="150" y="132" width="48" height="5" rx="2.5" fill="#5DD8FF"/>
  <rect x="150" y="144" width="40" height="5" rx="2.5" fill="#3F4048"/>
  <rect x="150" y="156" width="44" height="5" rx="2.5" fill="#3F4048"/>
  <rect x="158" y="170" width="32" height="8" rx="4" fill="#67B7A4"/>
  <g transform="translate(128 144)">
    <circle r="15" fill="#1A1B1F" stroke="#5DD8FF" stroke-width="2.4"/>
    <path d="M -8 -2 A 8 8 0 0 1 6 -5" fill="none" stroke="#5DD8FF" stroke-width="2.4" stroke-linecap="round"/>
    <path d="M -4 -3.5 L 0 0 L -4 3.5" fill="none" stroke="#5DD8FF" stroke-width="2.4" stroke-linecap="round" stroke-linejoin="round" transform="translate(6 -5) rotate(30)"/>
    <path d="M 8 2 A 8 8 0 0 1 -6 5" fill="none" stroke="#5DD8FF" stroke-width="2.4" stroke-linecap="round"/>
    <path d="M -4 -3.5 L 0 0 L -4 3.5" fill="none" stroke="#5DD8FF" stroke-width="2.4" stroke-linecap="round" stroke-linejoin="round" transform="translate(-6 5) rotate(-150)"/>
  </g>
</svg>
