<svg xmlns="http://www.w3.org/2000/svg" viewBox="0 0 256 256" width="256" height="256" role="img" aria-label="PreviewsMCP">
  <defs>
    <linearGradient id="bg" x1="0" y1="0" x2="1" y2="1">
      <stop offset="0" stop-color="#2D2E35"/>
      <stop offset="1" stop-color="#1A1B1F"/>
    </linearGradient>
    <linearGradient id="ring" x1="0" y1="0" x2="1" y2="1">
      <stop offset="0" stop-color="#5DD8FF"/>
      <stop offset="1" stop-color="#FF7AB2"/>
    </linearGradient>
  </defs>
  <rect width="256" height="256" rx="56" fill="url(#bg)"/>
  <g transform="translate(128 128)">
    <path d="M 0 -78 A 78 78 0 1 1 -55 -55" fill="none" stroke="url(#ring)" stroke-width="9" stroke-linecap="round"/>
    <path d="M -67 -43 L -55 -55 L -43 -43" fill="none" stroke="#5DD8FF" stroke-width="9" stroke-linecap="round" stroke-linejoin="round"/>
  </g>
  <rect x="92" y="62" width="72" height="132" rx="16" fill="#26272D" stroke="#3F4048" stroke-width="2"/>
  <rect x="116" y="70" width="24" height="5" rx="2.5" fill="#0D0D0F"/>
  <rect x="100" y="84" width="56" height="30" rx="6" fill="#32333A"/>
  <circle cx="113" cy="99" r="7" fill="#FF7AB2"/>
  <rect x="125" y="93" width="26" height="4" rx="2" fill="#DFDFE0"/>
  <rect x="125" y="101" width="20" height="3" rx="1.5" fill="#7F8C98"/>
  <rect x="100" y="122" width="56" height="4" rx="2" fill="#5DD8FF"/>
  <rect x="100" y="132" width="44" height="4" rx="2" fill="#3F4048"/>
  <rect x="100" y="142" width="50" height="4" rx="2" fill="#3F4048"/>
  <rect x="100" y="152" width="38" height="4" rx="2" fill="#3F4048"/>
  <rect x="108" y="168" width="40" height="10" rx="5" fill="#67B7A4"/>
  <circle cx="158" cy="74" r="7" fill="#28C840" stroke="#1A1B1F" stroke-width="2.5"/>
</svg>
