<svg xmlns="http://www.w3.org/2000/svg" viewBox="0 0 256 256" width="256" height="256" role="img" aria-label="PreviewsMCP">
  <defs>
    <linearGradient id="bg" x1="0" y1="0" x2="1" y2="1">
      <stop offset="0" stop-color="#2D2E35"/>
      <stop offset="1" stop-color="#1A1B1F"/>
    </linearGradient>
    <clipPath id="card"><rect x="44" y="44" width="168" height="168" rx="20"/></clipPath>
  </defs>
  <rect width="256" height="256" rx="56" fill="url(#bg)"/>
  <g clip-path="url(#card)">
    <rect x="44" y="44" width="168" height="168" fill="#26272D"/>
    <polygon points="44,44 212,44 44,212" fill="#23242A"/>
    <rect x="60" y="64" width="40" height="6" rx="3" fill="#FF7AB2"/>
    <rect x="60" y="78" width="62" height="6" rx="3" fill="#D0A8FF"/>
    <rect x="60" y="92" width="34" height="6" rx="3" fill="#5DD8FF"/>
    <rect x="60" y="106" width="50" height="6" rx="3" fill="#D9C97C"/>
    <rect x="60" y="120" width="28" height="6" rx="3" fill="#67B7A4"/>
    <circle cx="150" cy="150" r="12" fill="#FF7AB2"/>
    <rect x="168" y="144" width="30" height="5" rx="2.5" fill="#DFDFE0"/>
    <rect x="168" y="153" width="22" height="4" rx="2" fill="#7F8C98"/>
    <rect x="116" y="174" width="82" height="5" rx="2.5" fill="#3F4048"/>
    <rect x="116" y="186" width="66" height="5" rx="2.5" fill="#3F4048"/>
    <rect x="140" y="198" width="58" height="9" rx="4.5" fill="#67B7A4"/>
  </g>
  <line x1="212" y1="44" x2="44" y2="212" stroke="#5DD8FF" stroke-width="3"/>
  <rect x="44" y="44" width="168" height="168" rx="20" fill="none" stroke="#3F4048" stroke-width="1.5"/>
</svg>
