<svg xmlns="http://www.w3.org/2000/svg" viewBox="0 0 256 256" width="256" height="256" role="img" aria-label="PreviewsMCP">
  <defs>
    <linearGradient id="bg" x1="0" y1="0" x2="1" y2="1">
      <stop offset="0" stop-color="#2D2E35"/>
      <stop offset="1" stop-color="#1A1B1F"/>
    </linearGradient>
  </defs>
  <rect width="256" height="256" rx="56" fill="url(#bg)"/>
  <g fill="none" stroke="#7F8C98" stroke-width="2.5" stroke-dasharray="5 5">
    <rect x="36" y="74" width="68" height="108" rx="10"/>
    <circle cx="54" cy="98" r="8"/>
    <line x1="68" y1="94" x2="96" y2="94"/>
    <line x1="68" y1="102" x2="88" y2="102"/>
    <line x1="44" y1="124" x2="96" y2="124"/>
    <line x1="44" y1="136" x2="96" y2="136"/>
    <rect x="48" y="152" width="44" height="16" rx="8"/>
  </g>
  <path d="M 112 128 L 144 128" stroke="#5DD8FF" stroke-width="6" stroke-linecap="round"/>
  <path d="M 136 120 L 146 128 L 136 136" fill="none" stroke="#5DD8FF" stroke-width="6" stroke-linecap="round" stroke-linejoin="round"/>
  <rect x="152" y="74" width="68" height="108" rx="10" fill="#32333A" stroke="#3F4048" stroke-width="1.5"/>
  <circle cx="170" cy="98" r="8" fill="#FF7AB2"/>
  <rect x="184" y="92" width="28" height="5" rx="2.5" fill="#DFDFE0"/>
  <rect x="184" y="101" width="20" height="4" rx="2" fill="#7F8C98"/>
  <rect x="160" y="124" width="52" height="5" rx="2.5" fill="#5DD8FF"/>
  <rect x="160" y="136" width="44" height="5" rx="2.5" fill="#3F4048"/>
  <rect x="164" y="152" width="44" height="16" rx="8" fill="#67B7A4"/>
</svg>
