<svg xmlns="http://www.w3.org/2000/svg" viewBox="0 0 256 256" width="256" height="256" role="img" aria-label="PreviewsMCP">
  <defs>
    <linearGradient id="bg" x1="0" y1="0" x2="1" y2="1">
      <stop offset="0" stop-color="#2D2E35"/>
      <stop offset="1" stop-color="#1A1B1F"/>
    </linearGradient>
    <linearGradient id="p" x1="0" y1="0" x2="1" y2="1">
      <stop offset="0" stop-color="#5DD8FF"/>
      <stop offset="1" stop-color="#FF7AB2"/>
    </linearGradient>
  </defs>
  <rect width="256" height="256" rx="56" fill="url(#bg)"/>
  <g fill="none" stroke="url(#p)" stroke-width="24" stroke-linecap="round" stroke-linejoin="round">
    <path d="M 84 196 L 84 76"/>
    <path d="M 84 82 L 130 82 A 32 32 0 0 1 130 146 L 84 146"/>
  </g>
  <path d="M 168 70 C 170 86 176 92 192 94 C 176 96 170 102 168 118 C 166 102 160 96 144 94 C 160 92 166 86 168 70 Z" fill="#D9C97C"/>
  <path d="M 196 116 C 197 124 200 127 208 128 C 200 129 197 132 196 140 C 195 132 192 129 184 128 C 192 127 195 124 196 116 Z" fill="#67B7A4"/>
</svg>
