<svg xmlns="http://www.w3.org/2000/svg" viewBox="0 0 256 256" width="256" height="256" role="img" aria-label="PreviewsMCP">
  <defs>
    <linearGradient id="bg" x1="0" y1="0" x2="1" y2="1">
      <stop offset="0" stop-color="#2D2E35"/>
      <stop offset="1" stop-color="#1A1B1F"/>
    </linearGradient>
  </defs>

  <rect width="256" height="256" rx="56" fill="url(#bg)"/>

  <!-- IDE window -->
  <rect x="34" y="46" width="188" height="164" rx="18" fill="#26272D" stroke="#55585F" stroke-width="1.5"/>

  <!-- Title bar -->
  <circle cx="52" cy="60" r="3.5" fill="#FF5F57"/>
  <circle cx="65" cy="60" r="3.5" fill="#FEBC2E"/>
  <circle cx="78" cy="60" r="3.5" fill="#28C840"/>
  <line x1="34" y1="72" x2="222" y2="72" stroke="#55585F" stroke-width="1.5"/>

  <!-- Seam -->
  <line x1="128" y1="72" x2="128" y2="210" stroke="#55585F" stroke-width="1.5"/>

  <!-- Left: code -->
  <rect x="50" y="100" width="46" height="7" rx="3.5" fill="#FF7AB2"/>
  <rect x="50" y="116" width="64" height="7" rx="3.5" fill="#D0A8FF"/>
  <rect x="62" y="132" width="40" height="7" rx="3.5" fill="#FC6A5D"/>
  <rect x="62" y="148" width="52" height="7" rx="3.5" fill="#5DD8FF"/>
  <rect x="50" y="164" width="34" height="7" rx="3.5" fill="#D9C97C"/>
  <rect x="50" y="180" width="48" height="7" rx="3.5" fill="#67B7A4"/>

  <!-- Right: rendered preview card -->
  <rect x="146" y="96" width="62" height="98" rx="9" fill="#32333A"/>
  <circle cx="162" cy="114" r="9" fill="#FF7AB2"/>
  <rect x="176" y="108" width="26" height="5" rx="2.5" fill="#DFDFE0"/>
  <rect x="176" y="118" width="18" height="4" rx="2" fill="#7F8C98"/>
  <rect x="154" y="136" width="48" height="5" rx="2.5" fill="#5DD8FF"/>
  <rect x="154" y="148" width="40" height="5" rx="2.5" fill="#3F4048"/>
  <rect x="154" y="160" width="44" height="5" rx="2.5" fill="#3F4048"/>
  <rect x="162" y="176" width="34" height="10" rx="5" fill="#67B7A4"/>

  <!-- Refresh arrows (top pink, bottom cyan) on the seam -->
  <g stroke-linecap="round" stroke-linejoin="round">
    <path d="M 117.86 150.72 A 10.5 10.5 0 0 1 134.02 139.4" fill="none" stroke="#FF7AB2" stroke-width="3"/>
    <path d="M 137.23 141.65 L 129.52 142.43 L 135.37 134.53 Z" fill="#FF7AB2" stroke="#FF7AB2" stroke-width="1.5"/>
    <path d="M 138.14 145.28 A 10.5 10.5 0 0 1 121.98 156.6" fill="none" stroke="#5DD8FF" stroke-width="3"/>
    <path d="M 118.9 154.85 L 125.9 153.58 L 120.77 161.3 Z" fill="#5DD8FF" stroke="#5DD8FF" stroke-width="1.5"/>
  </g>
</svg>
