<svg xmlns="http://www.w3.org/2000/svg" viewBox="0 0 256 256" width="256" height="256" role="img" aria-label="PreviewsMCP">
  <defs>
    <linearGradient id="bg" x1="0" y1="0" x2="1" y2="1">
      <stop offset="0" stop-color="#FF8A3D"/>
      <stop offset="1" stop-color="#FF2D55"/>
    </linearGradient>
  </defs>

  <rect width="256" height="256" rx="56" fill="url(#bg)"/>

  <!-- Code editor window -->
  <rect x="16" y="52" width="156" height="152" rx="14" fill="#FFFFFF"/>
  <!-- Title bar: </> monogram -->
  <path d="M 30 72 L 25 76 L 30 80 M 40 72 L 45 76 L 40 80"
        fill="none" stroke="#FF2D55" stroke-width="2.4"
        stroke-linecap="round" stroke-linejoin="round"/>
  <line x1="16" y1="88" x2="172" y2="88" stroke="#F2F2F7" stroke-width="1.5"/>
  <!-- Code lines -->
  <rect x="26" y="100" width="46" height="6" rx="3" fill="#FF8A3D"/>
  <rect x="26" y="114" width="78" height="6" rx="3" fill="#FFB199"/>
  <rect x="40" y="128" width="58" height="6" rx="3" fill="#FF2D55"/>
  <rect x="40" y="142" width="70" height="6" rx="3" fill="#FFB199"/>
  <rect x="26" y="156" width="40" height="6" rx="3" fill="#FF8A3D"/>
  <rect x="40" y="170" width="62" height="6" rx="3" fill="#FFB199"/>
  <rect x="26" y="184" width="54" height="6" rx="3" fill="#FF2D55"/>

  <!-- iPhone (simulator) overlapping the right side of the code window -->
  <rect x="150" y="38" width="90" height="180" rx="18" fill="#FFFFFF"
        stroke="#FF2D55" stroke-width="2.5"/>
  <!-- Notch -->
  <rect x="180" y="46" width="30" height="6" rx="3" fill="#1C1C1E"/>
  <!-- Header card with avatar -->
  <rect x="158" y="62" width="74" height="42" rx="6" fill="#FFF1ED"/>
  <circle cx="173" cy="83" r="8" fill="#FF8A3D"/>
  <rect x="188" y="76" width="36" height="4" rx="2" fill="#FF2D55"/>
  <rect x="188" y="84" width="28" height="3" rx="1.5" fill="#FFB199"/>
  <rect x="188" y="92" width="32" height="3" rx="1.5" fill="#FFB199"/>
  <!-- Content lines -->
  <rect x="158" y="116" width="74" height="4" rx="2" fill="#FFB199"/>
  <rect x="158" y="126" width="60" height="4" rx="2" fill="#FFB199"/>
  <rect x="158" y="136" width="68" height="4" rx="2" fill="#FFB199"/>
  <rect x="158" y="146" width="52" height="4" rx="2" fill="#FFB199"/>
  <rect x="158" y="156" width="64" height="4" rx="2" fill="#FFB199"/>
  <rect x="158" y="166" width="46" height="4" rx="2" fill="#FFB199"/>
  <rect x="158" y="176" width="58" height="4" rx="2" fill="#FFB199"/>
  <rect x="158" y="186" width="40" height="4" rx="2" fill="#FFB199"/>
  <rect x="158" y="196" width="52" height="4" rx="2" fill="#FFB199"/>

  <!-- Circular sync arrows between code editor and phone -->
  <g transform="translate(146 128)">
    <circle r="16" fill="#FFFFFF" stroke="#FF2D55" stroke-width="2.5"/>
    <!-- Top arc (clockwise from lower-left to upper-right of the inner circle) -->
    <path d="M -9 -2 A 9 9 0 0 1 7 -6"
          fill="none" stroke="#FF2D55" stroke-width="2.6"
          stroke-linecap="round"/>
    <!-- Top chevron: tip anchored at arc end (7,-6), rotated to the CW tangent -->
    <path d="M -5 -4 L 0 0 L -5 4"
          fill="none" stroke="#FF2D55" stroke-width="2.6"
          stroke-linecap="round" stroke-linejoin="round"
          transform="translate(7 -6) rotate(30)"/>
    <!-- Bottom arc -->
    <path d="M 9 2 A 9 9 0 0 1 -7 6"
          fill="none" stroke="#FF2D55" stroke-width="2.6"
          stroke-linecap="round"/>
    <!-- Bottom chevron: tip anchored at arc end (-7,6), rotated by 180° from the top -->
    <path d="M -5 -4 L 0 0 L -5 4"
          fill="none" stroke="#FF2D55" stroke-width="2.6"
          stroke-linecap="round" stroke-linejoin="round"
          transform="translate(-7 6) rotate(-150)"/>
  </g>
</svg>
